<mxfile host="app.diagrams.net" modified="2020-05-19T16:55:35.020Z" agent="5.0 (Macintosh; Intel Mac OS X 10_15_4) AppleWebKit/537.36 (KHTML, like Gecko) Chrome/81.0.4044.138 Safari/537.36" etag="oaFUegrkl28Oh1634ktu" version="13.1.3" type="github">
  <diagram id="C5RBs43oDa-KdzZeNtuy" name="Page-1">
    <mxGraphModel dx="946" dy="646" grid="1" gridSize="10" guides="1" tooltips="1" connect="1" arrows="1" fold="1" page="1" pageScale="1" pageWidth="827" pageHeight="1169" math="0" shadow="0">
      <root>
        <mxCell id="WIyWlLk6GJQsqaUBKTNV-0" />
        <mxCell id="WIyWlLk6GJQsqaUBKTNV-1" parent="WIyWlLk6GJQsqaUBKTNV-0" />
        <mxCell id="u4ffKj4K8dfodPnQ9brh-12" style="edgeStyle=orthogonalEdgeStyle;rounded=0;orthogonalLoop=1;jettySize=auto;html=1;entryX=0.5;entryY=0;entryDx=0;entryDy=0;" edge="1" parent="WIyWlLk6GJQsqaUBKTNV-1" source="u4ffKj4K8dfodPnQ9brh-0" target="u4ffKj4K8dfodPnQ9brh-0">
          <mxGeometry relative="1" as="geometry">
            <mxPoint x="145" y="170" as="targetPoint" />
            <Array as="points">
              <mxPoint x="240" y="255" />
              <mxPoint x="240" y="170" />
              <mxPoint x="145" y="170" />
            </Array>
          </mxGeometry>
        </mxCell>
        <mxCell id="u4ffKj4K8dfodPnQ9brh-0" value="Has the mouse been pressed?" style="rhombus;whiteSpace=wrap;html=1;" vertex="1" parent="WIyWlLk6GJQsqaUBKTNV-1">
          <mxGeometry x="70" y="210" width="150" height="90" as="geometry" />
        </mxCell>
        <mxCell id="u4ffKj4K8dfodPnQ9brh-1" value="" style="endArrow=classic;html=1;exitX=0.5;exitY=1;exitDx=0;exitDy=0;" edge="1" parent="WIyWlLk6GJQsqaUBKTNV-1" source="u4ffKj4K8dfodPnQ9brh-0">
          <mxGeometry width="50" height="50" relative="1" as="geometry">
            <mxPoint x="-60" y="540" as="sourcePoint" />
            <mxPoint x="145" y="340" as="targetPoint" />
            <Array as="points" />
          </mxGeometry>
        </mxCell>
        <mxCell id="u4ffKj4K8dfodPnQ9brh-2" value="Yes" style="text;html=1;strokeColor=none;fillColor=none;align=center;verticalAlign=middle;whiteSpace=wrap;rounded=0;" vertex="1" parent="WIyWlLk6GJQsqaUBKTNV-1">
          <mxGeometry x="150" y="290" width="40" height="20" as="geometry" />
        </mxCell>
        <mxCell id="u4ffKj4K8dfodPnQ9brh-9" value="" style="edgeStyle=orthogonalEdgeStyle;rounded=0;orthogonalLoop=1;jettySize=auto;html=1;" edge="1" parent="WIyWlLk6GJQsqaUBKTNV-1" source="u4ffKj4K8dfodPnQ9brh-4" target="u4ffKj4K8dfodPnQ9brh-8">
          <mxGeometry relative="1" as="geometry" />
        </mxCell>
        <mxCell id="u4ffKj4K8dfodPnQ9brh-4" value="Get coordinates of mouse click" style="rounded=0;whiteSpace=wrap;html=1;" vertex="1" parent="WIyWlLk6GJQsqaUBKTNV-1">
          <mxGeometry x="85" y="340" width="120" height="60" as="geometry" />
        </mxCell>
        <mxCell id="u4ffKj4K8dfodPnQ9brh-11" value="" style="edgeStyle=orthogonalEdgeStyle;rounded=0;orthogonalLoop=1;jettySize=auto;html=1;" edge="1" parent="WIyWlLk6GJQsqaUBKTNV-1" source="u4ffKj4K8dfodPnQ9brh-8" target="u4ffKj4K8dfodPnQ9brh-10">
          <mxGeometry relative="1" as="geometry" />
        </mxCell>
        <mxCell id="u4ffKj4K8dfodPnQ9brh-8" value="&lt;span&gt;Check to see which tower has been clicked on from the menu&lt;/span&gt;" style="rounded=0;whiteSpace=wrap;html=1;" vertex="1" parent="WIyWlLk6GJQsqaUBKTNV-1">
          <mxGeometry x="85" y="480" width="120" height="60" as="geometry" />
        </mxCell>
        <mxCell id="u4ffKj4K8dfodPnQ9brh-18" style="edgeStyle=orthogonalEdgeStyle;rounded=0;orthogonalLoop=1;jettySize=auto;html=1;entryX=0.5;entryY=1;entryDx=0;entryDy=0;" edge="1" parent="WIyWlLk6GJQsqaUBKTNV-1" source="u4ffKj4K8dfodPnQ9brh-10" target="u4ffKj4K8dfodPnQ9brh-17">
          <mxGeometry relative="1" as="geometry">
            <Array as="points">
              <mxPoint x="345" y="450" />
              <mxPoint x="345" y="450" />
            </Array>
          </mxGeometry>
        </mxCell>
        <mxCell id="u4ffKj4K8dfodPnQ9brh-10" value="Display the tower in the position of the cursor and follow it" style="rounded=0;whiteSpace=wrap;html=1;" vertex="1" parent="WIyWlLk6GJQsqaUBKTNV-1">
          <mxGeometry x="257" y="480" width="120" height="60" as="geometry" />
        </mxCell>
        <mxCell id="u4ffKj4K8dfodPnQ9brh-13" value="No" style="text;html=1;strokeColor=none;fillColor=none;align=center;verticalAlign=middle;whiteSpace=wrap;rounded=0;" vertex="1" parent="WIyWlLk6GJQsqaUBKTNV-1">
          <mxGeometry x="205" y="230" width="40" height="20" as="geometry" />
        </mxCell>
        <mxCell id="u4ffKj4K8dfodPnQ9brh-20" value="" style="edgeStyle=orthogonalEdgeStyle;rounded=0;orthogonalLoop=1;jettySize=auto;html=1;entryX=0.25;entryY=0;entryDx=0;entryDy=0;" edge="1" parent="WIyWlLk6GJQsqaUBKTNV-1" source="u4ffKj4K8dfodPnQ9brh-17" target="u4ffKj4K8dfodPnQ9brh-10">
          <mxGeometry relative="1" as="geometry">
            <mxPoint x="290" y="460" as="targetPoint" />
            <Array as="points">
              <mxPoint x="270" y="460" />
              <mxPoint x="287" y="460" />
            </Array>
          </mxGeometry>
        </mxCell>
        <mxCell id="u4ffKj4K8dfodPnQ9brh-23" value="" style="edgeStyle=orthogonalEdgeStyle;rounded=0;orthogonalLoop=1;jettySize=auto;html=1;" edge="1" parent="WIyWlLk6GJQsqaUBKTNV-1" source="u4ffKj4K8dfodPnQ9brh-17">
          <mxGeometry relative="1" as="geometry">
            <mxPoint x="345" y="250" as="targetPoint" />
          </mxGeometry>
        </mxCell>
        <mxCell id="u4ffKj4K8dfodPnQ9brh-17" value="Has the mouse been pressed?" style="rhombus;whiteSpace=wrap;html=1;" vertex="1" parent="WIyWlLk6GJQsqaUBKTNV-1">
          <mxGeometry x="270" y="290" width="150" height="90" as="geometry" />
        </mxCell>
        <mxCell id="u4ffKj4K8dfodPnQ9brh-21" value="No" style="text;html=1;strokeColor=none;fillColor=none;align=center;verticalAlign=middle;whiteSpace=wrap;rounded=0;" vertex="1" parent="WIyWlLk6GJQsqaUBKTNV-1">
          <mxGeometry x="240" y="320" width="40" height="20" as="geometry" />
        </mxCell>
        <mxCell id="u4ffKj4K8dfodPnQ9brh-25" value="" style="edgeStyle=orthogonalEdgeStyle;rounded=0;orthogonalLoop=1;jettySize=auto;html=1;" edge="1" parent="WIyWlLk6GJQsqaUBKTNV-1" source="u4ffKj4K8dfodPnQ9brh-24" target="u4ffKj4K8dfodPnQ9brh-0">
          <mxGeometry relative="1" as="geometry">
            <Array as="points">
              <mxPoint x="110" y="190" />
              <mxPoint x="110" y="190" />
            </Array>
          </mxGeometry>
        </mxCell>
        <mxCell id="u4ffKj4K8dfodPnQ9brh-24" value="Start of deploying of tower" style="ellipse;whiteSpace=wrap;html=1;fillColor=#60a917;strokeColor=#2D7600;fontColor=#ffffff;" vertex="1" parent="WIyWlLk6GJQsqaUBKTNV-1">
          <mxGeometry x="30" y="120" width="165" height="30" as="geometry" />
        </mxCell>
        <mxCell id="u4ffKj4K8dfodPnQ9brh-29" value="" style="edgeStyle=orthogonalEdgeStyle;rounded=0;orthogonalLoop=1;jettySize=auto;html=1;" edge="1" parent="WIyWlLk6GJQsqaUBKTNV-1" source="u4ffKj4K8dfodPnQ9brh-27">
          <mxGeometry relative="1" as="geometry">
            <mxPoint x="348" y="160" as="targetPoint" />
          </mxGeometry>
        </mxCell>
        <mxCell id="u4ffKj4K8dfodPnQ9brh-27" value="Place tower in location of the mouse click" style="rounded=0;whiteSpace=wrap;html=1;" vertex="1" parent="WIyWlLk6GJQsqaUBKTNV-1">
          <mxGeometry x="285" y="200" width="125" height="50" as="geometry" />
        </mxCell>
        <mxCell id="u4ffKj4K8dfodPnQ9brh-30" value="End of deploying of tower" style="ellipse;whiteSpace=wrap;html=1;fillColor=#e51400;strokeColor=#B20000;fontColor=#ffffff;" vertex="1" parent="WIyWlLk6GJQsqaUBKTNV-1">
          <mxGeometry x="265" y="130" width="165" height="30" as="geometry" />
        </mxCell>
      </root>
    </mxGraphModel>
  </diagram>
</mxfile>
